<svg id="Capa_1" enable-background="new 0 0 512 512" height="512" viewBox="0 0 512 512" width="512" xmlns="http://www.w3.org/2000/svg"><g><path d="m387.74 320.88h-273.782c-62.937 0-113.958-51.021-113.958-113.958 0-62.938 51.021-113.958 113.958-113.958h273.782c62.937 0 113.958 51.021 113.958 113.958 0 62.937-51.021 113.958-113.958 113.958z" fill="#eef2ff"/><path d="m398.042 92.964h-30.905c62.937 0 113.958 51.021 113.958 113.958 0 62.937-51.021 113.958-113.958 113.958h30.905c62.937 0 113.958-51.021 113.958-113.958 0-62.938-51.021-113.958-113.958-113.958z" fill="#e0e7ff"/><path d="m387.74 129.02h-273.782c-42.955 0-77.902 34.946-77.902 77.902 0 42.955 34.946 77.902 77.902 77.902h273.782c42.955 0 77.902-34.947 77.902-77.902s-34.947-77.902-77.902-77.902z" fill="#4f46e5"/><path d="m398.042 129.02h-30.905c42.955 0 77.901 34.947 77.901 77.902s-34.946 77.902-77.901 77.902h30.905c42.955 0 77.901-34.947 77.901-77.902.001-42.955-34.946-77.902-77.901-77.902z" fill="#4338ca"/><g><g><path d="m343.836 251.418c-4.267 0-7.726-3.459-7.726-7.726v-73.402c0-3.381 2.199-6.37 5.427-7.376 3.227-1.005 6.736.203 8.657 2.986l37.241 53.926-.48-49.6c-.041-4.267 3.384-7.76 7.651-7.801 4.314-.064 7.76 3.385 7.801 7.652l.687 71.061c0 4.374-2.413 7.906-6.147 9.074-3.646 1.136-7.508-.299-9.837-3.663l-35.547-51.475v48.617c-.001 4.268-3.46 7.727-7.727 7.727z" fill="#ffffff"/></g></g><g><g><path d="m128.548 251.451c-7.56 0-14.045-4.166-17.396-7.539-3.008-3.026-2.993-7.919.034-10.926 3.01-2.99 7.865-2.991 10.877-.015.285.274 4.933 4.612 9.16 2.269 2.213-1.228 3.588-3.647 3.588-6.311v-58.776c0-4.268 3.459-7.726 7.726-7.726s7.726 3.459 7.726 7.726v58.776c0 8.274-4.422 15.868-11.54 19.821-3.48 1.931-6.927 2.701-10.175 2.701z" fill="#ffffff"/></g></g><g><g><path d="m295.386 251.418c-4.267 0-7.726-3.459-7.726-7.726v-73.539c0-4.268 3.459-7.726 7.726-7.726s7.726 3.459 7.726 7.726v73.539c0 4.267-3.459 7.726-7.726 7.726z" fill="#ffffff"/></g></g><g><path d="m218.283 251.418c-24.535 0-44.495-19.961-44.495-44.496s19.961-44.496 44.495-44.496c24.535 0 44.496 19.961 44.496 44.496s-19.961 44.496-44.496 44.496zm0-73.539c-16.014 0-29.043 13.029-29.043 29.043s13.029 29.043 29.043 29.043c16.015 0 29.043-13.029 29.043-29.043.001-16.014-13.028-29.043-29.043-29.043z" fill="#ffffff"/></g><path d="m383.366 340.293-35.109 6.851c-5.241 1.023-9.339 5.121-10.362 10.362l-10.627 54.458c-1.673 8.574-13.5 9.666-16.714 1.542l-47.859-120.958c-2.817-7.12 3.647-14.529 10.767-11.712l114.027 38.414c8.123 3.215 4.451 19.37-4.123 21.043z" fill="#059669"/><g><path d="m404.257 319.803-136.272-53.918c-7.12-2.817-14.166 4.229-11.349 11.349l6.059 15.314 120.671 47.745 19.349-3.776c8.574-1.673 9.665-13.5 1.542-16.714z" fill="#047857"/></g></g></svg>